# xmcd CD database file
#
# Track frame offsets:
#	150
#	12673
#	27325
#	41420
#	57003
#	71365
#	87246
#	99580
#	114035
#	129193
#	143215
#	156474
#	170416
#	186386
#	200892
#	214303
#	230129
#	245328
#	259120
#	273523
#	289342
#	303303
#	320807
#	334170
#
# Disc length: 4627 seconds
#
# Revision: 1
# Processed by: cddbd v1.5.2PL0 Copyright (c) Steve Scherf et al.
# Submitted via: CDex 1.51
#
DISCID=6d121118
DTITLE=Sidney Bechet - Five Classic Albums plus
DYEAR=1900
DGENRE=Jazz
TTITLE0=Le Marchand De Poissons
TTITLE1=Si Tu Vois Ma Mere
TTITLE2=Wabash Blues
TTITLE3=Dans Les Rues d'Antibes
TTITLE4=Strike Up The Band
TTITLE5=As-Tu Le Cafard?
TTITLE6=Pattes De Mouche
TTITLE7=Ghost Of The Blues
TTITLE8=It's No Sin
TTITLE9=Because Of You
TTITLE10=That Old Black Magic
TTITLE11=I Get A Kick Out Of You
TTITLE12=You're Lucky To Me
TTITLE13=Petite Fleur
TTITLE14=Girl's Dance
TTITLE15=Blues
TTITLE16=Porter Love Song
TTITLE17=Embraceable You
TTITLE18=12th Street Rag
TTITLE19=Au Clair De La Lune
TTITLE20=Ol' Man River
TTITLE21=Show Boat Medley
TTITLE22=You Rascal You
TTITLE23=Le Loup, La Biche Et Le Chevalier
EXTD=
EXTT0=
EXTT1=
EXTT2=
EXTT3=
EXTT4=
EXTT5=
EXTT6=
EXTT7=
EXTT8=
EXTT9=
EXTT10=
EXTT11=
EXTT12=
EXTT13=
EXTT14=
EXTT15=
EXTT16=
EXTT17=
EXTT18=
EXTT19=
EXTT20=
EXTT21=
EXTT22=
EXTT23=
PLAYORDER=
